# Blender v3.1.2 OBJ File: ''
# www.blender.org
mtllib lectern.mtl
o Cube_Cube.001
v -0.047963 0.000000 0.047963
v -0.047963 0.020368 0.050000
v -0.050000 0.020368 0.047963
v -0.047963 0.980956 0.050000
v -0.047968 1.001368 0.047963
v -0.050000 0.979632 0.047963
v -0.047963 0.000000 -0.047963
v -0.050000 0.020368 -0.047963
v -0.047963 0.020368 -0.050000
v -0.047968 1.001368 -0.047963
v -0.047963 0.980956 -0.050000
v -0.050000 0.979632 -0.047963
v 0.047963 0.000000 0.047963
v 0.050000 0.020368 0.047963
v 0.047963 0.020368 0.050000
v 0.047968 1.065923 0.047963
v 0.047963 1.045506 0.050000
v 0.050000 1.046922 0.047963
v 0.047963 0.000000 -0.047963
v 0.047963 0.020368 -0.050000
v 0.050000 0.020368 -0.047963
v 0.047968 1.065923 -0.047963
v 0.050000 1.046922 -0.047963
v 0.047963 1.045506 -0.050000
v -0.338689 0.794251 0.394981
v -0.338689 0.773832 0.392944
v -0.338689 0.794251 0.394981
v -0.365653 0.795682 0.392944
v -0.365653 0.792820 0.392944
v -0.338689 0.794251 -0.398440
v -0.338689 0.773832 -0.396404
v -0.365653 0.795682 -0.396404
v -0.338689 0.794251 -0.398440
v -0.365653 0.792820 -0.396404
v 0.220313 1.167479 0.392944
v 0.220313 1.170340 0.392944
v 0.193349 1.168910 0.394981
v 0.193349 1.168910 0.394981
v 0.193349 1.189328 0.392944
v 0.220313 1.167479 -0.396404
v 0.193349 1.168910 -0.398440
v 0.220313 1.170340 -0.396404
v 0.193349 1.189328 -0.396404
v 0.193349 1.168910 -0.398440
vt 0.379828 0.755092
vt 0.620166 0.755092
vt 0.619961 0.994908
vt 0.380033 0.994908
vt 0.379771 0.505092
vt 0.620229 0.505092
vt 0.620229 0.744908
vt 0.379771 0.744908
vt 0.125000 0.500642
vt 0.374095 0.500642
vt 0.374095 0.749358
vt 0.125000 0.749358
vt 0.630081 0.505092
vt 0.869919 0.505092
vt 0.869919 0.744908
vt 0.630081 0.744908
vt 0.380092 0.005092
vt 0.619908 0.005092
vt 0.619908 0.244908
vt 0.380092 0.244908
vt 0.380033 0.255092
vt 0.619961 0.255092
vt 0.620166 0.494908
vt 0.379828 0.494908
vt 0.500000 0.756460
vt 0.500000 0.756460
vt 0.500000 0.993540
vt 0.500000 0.993540
vt 0.392518 0.500642
vt 0.625000 0.500642
vt 0.625000 0.749358
vt 0.392518 0.749358
vt 0.874095 0.500642
vt 0.874095 0.749358
vt 0.375000 0.000642
vt 0.607482 0.000642
vt 0.607482 0.249358
vt 0.375000 0.249358
vt 0.500000 0.256460
vt 0.500000 0.256460
vt 0.500000 0.493540
vt 0.500000 0.493540
vt 0.130092 0.744908
vt 0.130092 0.750000
vt 0.125000 0.744908
vt 0.625000 0.994919
vt 0.619908 1.000000
vt 0.130092 0.505092
vt 0.125000 0.505092
vt 0.130092 0.500000
vt 0.625000 0.255081
vt 0.620239 0.250000
vt 0.619908 0.250000
vt 0.369908 0.744908
vt 0.375000 0.744908
vt 0.369908 0.750000
vt 0.625000 0.755081
vt 0.619897 0.750000
vt 0.620229 0.750000
vt 0.369908 0.505092
vt 0.369908 0.500000
vt 0.375000 0.505092
vt 0.624680 0.505092
vt 0.625000 0.505092
vt 0.619897 0.500000
vt 0.625000 0.999095
vt 0.607482 1.000000
vt 0.625000 0.250905
vt 0.376234 0.250000
vt 0.607482 0.250000
vt 0.375000 0.749358
vt 0.362143 0.750000
vt 0.362143 0.500000
vt 0.375000 0.500642
vt 0.380092 0.000000
vt 0.620239 0.000000
vt 0.625000 0.005092
vt 0.625000 0.244908
vt 0.625000 0.494919
vt 0.376234 0.000000
vt 0.376234 0.000000
vt 0.625000 0.000642
vt 0.625000 0.249358
vt 0.125064 0.500000
vt 0.625000 0.500000
vt 0.125064 0.750000
vt 0.625000 0.750000
vn 0.0000 0.0000 1.0000
vn 1.0000 0.0000 0.0000
vn 0.5758 -0.8176 0.0000
vn -0.5583 0.8297 0.0000
vn -1.0000 0.0000 0.0000
vn 0.0000 0.0000 -1.0000
vn 0.5758 0.8176 0.0000
vn -0.5758 0.8176 0.0000
vn -0.5758 -0.8176 0.0000
vn -0.7053 -0.0705 0.7053
vn -0.7272 0.0680 0.6830
vn -0.7053 -0.0705 -0.7053
vn -0.7272 0.0680 -0.6830
vn 0.7053 -0.0705 0.7053
vn 0.6795 0.0727 0.7301
vn 0.7053 -0.0705 -0.7053
vn 0.6795 0.0727 -0.7301
vn -0.0753 0.0000 0.9972
vn -0.0753 0.0000 -0.9972
vn 0.0753 0.0000 0.9972
vn 0.0753 0.0000 -0.9972
vn -0.9950 -0.0995 0.0000
vn -0.7071 0.0000 0.7071
vn -0.9957 0.0931 0.0000
vn -0.7071 0.0000 -0.7071
vn 0.0000 -0.0995 -0.9950
vn -0.0667 0.0991 -0.9928
vn 0.7071 0.0000 -0.7071
vn 0.9950 -0.0995 0.0000
vn 0.9943 0.1063 0.0000
vn 0.7071 0.0000 0.7071
vn 0.0000 -0.0995 0.9950
vn -0.0667 0.0991 0.9928
vn -0.0697 -0.0990 0.9926
vn -0.0697 -0.0990 -0.9926
vn 0.0697 -0.0990 -0.9926
vn -0.0697 0.0990 -0.9926
vn 0.0697 0.0990 -0.9926
vn 0.0697 0.0990 0.9926
vn 0.0697 -0.0990 0.9926
vn -0.0697 0.0990 0.9926
vn 0.0000 -1.0000 0.0000
usemtl None
s off
f 15/1/1 17/2/1 4/3/1 2/4/1
f 21/5/2 23/6/2 18/7/2 14/8/2
f 31/9/3 40/10/3 35/11/3 26/12/3
f 22/13/4 10/14/4 5/15/4 16/16/4
f 3/17/5 6/18/5 12/19/5 8/20/5
f 9/21/6 11/22/6 24/23/6 20/24/6
f 37/25/6 38/26/6 27/27/6 25/28/6
f 42/29/7 43/30/7 39/31/7 36/32/7
f 43/30/8 32/33/8 28/34/8 39/31/8
f 26/35/9 29/36/9 34/37/9 31/38/9
f 30/39/1 33/40/1 44/41/1 41/42/1
f 1/43/10 2/44/10 3/45/10
f 4/3/11 5/46/11 6/47/11
f 7/48/12 8/49/12 9/50/12
f 10/51/13 11/52/13 12/53/13
f 13/54/14 14/55/14 15/56/14
f 16/57/15 17/58/15 18/59/15
f 19/60/16 20/61/16 21/62/16
f 22/63/17 23/64/17 24/65/17
f 27/27/18 28/66/18 29/67/18
f 32/68/19 33/69/19 34/70/19
f 35/11/20 36/71/20 37/72/20
f 40/10/21 41/73/21 42/74/21
f 7/48/22 1/43/22 3/45/22 8/49/22
f 2/75/23 4/76/23 6/18/23 3/17/23
f 5/77/24 10/78/24 12/19/24 6/18/24
f 11/22/25 9/21/25 8/20/25 12/19/25
f 19/60/26 7/48/26 9/50/26 20/61/26
f 10/51/27 22/79/27 24/23/27 11/22/27
f 23/6/28 21/5/28 20/24/28 24/23/28
f 13/54/29 19/60/29 21/5/29 14/8/29
f 22/13/30 16/16/30 18/7/30 23/6/30
f 17/2/31 15/1/31 14/8/31 18/7/31
f 1/43/32 13/54/32 15/56/32 2/44/32
f 16/57/33 5/46/33 4/3/33 17/2/33
f 25/80/34 27/81/34 29/36/34 26/35/34
f 28/82/5 32/83/5 34/37/5 29/36/5
f 33/40/35 30/39/35 31/38/35 34/37/35
f 40/10/36 31/9/36 30/84/36 41/73/36
f 32/68/37 43/85/37 44/41/37 33/40/37
f 43/30/38 42/29/38 41/42/38 44/41/38
f 35/11/2 40/10/2 42/29/2 36/32/2
f 38/26/39 37/25/39 36/32/39 39/31/39
f 26/12/40 35/11/40 37/72/40 25/86/40
f 39/87/41 28/66/41 27/27/41 38/26/41
f 7/48/42 19/60/42 13/54/42 1/43/42
